<svg width="33" height="31" viewBox="0 0 33 31" fill="none" xmlns="http://www.w3.org/2000/svg">
<path d="M11.375 30.75C12.8247 30.75 14 29.5747 14 28.125C14 26.6753 12.8247 25.5 11.375 25.5C9.92525 25.5 8.75 26.6753 8.75 28.125C8.75 29.5747 9.92525 30.75 11.375 30.75Z" fill="#060F42"/>
<path d="M25.625 30.75C27.0747 30.75 28.25 29.5747 28.25 28.125C28.25 26.6753 27.0747 25.5 25.625 25.5C24.1753 25.5 23 26.6753 23 28.125C23 29.5747 24.1753 30.75 25.625 30.75Z" fill="#060F42"/>
<path d="M1.67871 1.5H5.75014L11.0002 17.25M7.42875 6.48833L30.2385 8.07728C31.2042 8.14455 31.9248 8.99432 31.8333 9.95805L31.4507 13.9903C31.3751 14.7867 30.761 15.4263 29.9683 15.5341L9.59537 18.3053C8.41199 18.4663 7.59885 19.5776 7.80357 20.7542V20.7542C7.97915 21.7633 8.85505 22.5 9.87935 22.5H29.9645" stroke="#060F42" stroke-width="2" stroke-linecap="round" stroke-linejoin="round"/>
</svg>

