<svg width="36" height="31" viewBox="0 0 38 32" fill="none" xmlns="http://www.w3.org/2000/svg">
<path d="M21.5623 3.51015L21.5625 3.50999C22.3651 2.71488 23.3186 2.08362 24.3688 1.65276C25.419 1.22189 26.5449 1 27.6823 1C28.8196 1 29.9456 1.22189 30.9958 1.65276C32.0459 2.08362 32.9994 2.71488 33.8021 3.50999L34.5058 2.79956L33.8024 3.51032C34.6054 4.30503 35.2418 5.24808 35.6759 6.28532C36.1099 7.32254 36.3332 8.43392 36.3332 9.55606C36.3332 10.6782 36.1099 11.7896 35.6759 12.8268C35.2418 13.864 34.6054 14.8071 33.8024 15.6018L33.8022 15.602L31.9428 17.4431L18.9994 30.2594L6.05589 17.4431L4.19652 15.602C2.57541 13.9968 1.6665 11.8218 1.6665 9.55606C1.6665 7.2903 2.57541 5.11533 4.19652 3.51015C5.81795 1.90465 8.01917 1.00093 10.3165 1.00093C12.6137 1.00093 14.8149 1.90465 16.4364 3.51015L18.2958 5.35126C18.6855 5.73714 19.3133 5.73714 19.703 5.35126L21.5623 3.51015Z" stroke="#060F42" stroke-width="2" stroke-linecap="round" stroke-linejoin="round"/>
</svg>
